<svg width="18" height="12" viewBox="0 0 18 12" fill="none" xmlns="http://www.w3.org/2000/svg">
<path d="M0.288472 11.795C0.0961573 11.795 0 11.7083 0 11.5348C0 11.4654 0.0169689 11.3903 0.0509068 11.3093L4.53071 0.450985C4.59858 0.277529 4.67211 0.161892 4.7513 0.104073C4.83049 0.0346911 4.94362 0 5.09068 0H6.02397C6.18235 0 6.29547 0.0346911 6.36335 0.104073C6.44254 0.161892 6.51607 0.277529 6.58395 0.450985L11.0637 11.3093C11.0977 11.3903 11.1147 11.4654 11.1147 11.5348C11.1147 11.7083 11.0185 11.795 10.8262 11.795H9.34988C9.20282 11.795 9.09535 11.7777 9.02747 11.743C8.97091 11.6967 8.91435 11.61 8.85778 11.4828L7.89055 9.0544H3.20713L2.25687 11.4828C2.2003 11.61 2.13809 11.6967 2.07021 11.743C2.01365 11.7777 1.91183 11.795 1.76477 11.795H0.288472ZM7.34755 7.44126L5.54884 2.89671L3.75013 7.44126H7.34755Z" fill="#737277"/>
<path d="M14.0663 12C13.2744 12 12.6265 11.774 12.1226 11.3219C11.6187 10.8594 11.3667 10.2549 11.3667 9.50854C11.3667 8.81472 11.5929 8.24179 12.0454 7.78975C12.5082 7.33771 13.151 7.05388 13.9737 6.93824L15.9792 6.6544C16.2774 6.61235 16.4934 6.51248 16.6271 6.3548C16.7608 6.1866 16.8276 5.95007 16.8276 5.6452V5.51905C16.8276 5.01445 16.6322 4.60972 16.2414 4.30486C15.8609 3.98949 15.3827 3.8318 14.8068 3.8318C14.3543 3.8318 13.9583 3.92641 13.6189 4.11564C13.2898 4.29435 13.0276 4.54665 12.8322 4.87254C12.7499 5.0092 12.6471 5.07753 12.5237 5.07753C12.462 5.07753 12.3951 5.05125 12.3231 4.99869L11.9066 4.71485C11.8141 4.63075 11.7678 4.54139 11.7678 4.44678C11.7678 4.40473 11.7832 4.35217 11.8141 4.28909C12.1123 3.78449 12.5185 3.39028 13.0327 3.10644C13.5572 2.81209 14.1588 2.66491 14.8376 2.66491C15.4547 2.66491 16.0049 2.78581 16.4882 3.02759C16.9716 3.25887 17.3418 3.59001 17.5989 4.02102C17.8663 4.45204 18 4.95138 18 5.51905V11.5742C18 11.6373 17.9794 11.6899 17.9383 11.7319C17.8972 11.774 17.8457 11.795 17.784 11.795H17.1361C17.0744 11.795 17.023 11.774 16.9819 11.7319C16.9407 11.6899 16.9202 11.6373 16.9202 11.5742V10.4862C16.6013 10.9593 16.19 11.3325 15.6861 11.6058C15.1924 11.8686 14.6525 12 14.0663 12ZM14.1897 10.8962C14.6936 10.8962 15.1513 10.7595 15.5626 10.4862C15.974 10.2129 16.2928 9.87122 16.5191 9.46124C16.7556 9.04074 16.8739 8.63075 16.8739 8.23127V7.58476C16.6271 7.61629 15.8352 7.72668 14.4982 7.9159L14.0663 7.97897C13.0379 8.13666 12.5237 8.63075 12.5237 9.46124C12.5237 9.89225 12.6779 10.2392 12.9865 10.502C13.295 10.7648 13.6961 10.8962 14.1897 10.8962Z" fill="#737277"/>
</svg>
