<svg width="18" height="18" viewBox="0 0 18 18" fill="none" xmlns="http://www.w3.org/2000/svg">
<rect x="1.1842" y="1.28947" width="15.4211" height="15.4211" rx="1.5" stroke="#737277"/>
<path d="M6.7575 13.1053C6.65499 13.1053 6.57641 13.0851 6.52174 13.0449C6.4739 12.9966 6.43973 12.9161 6.41923 12.8034L4.79968 5.18452C4.79285 5.16037 4.78943 5.12415 4.78943 5.07585C4.78943 4.95511 4.85435 4.89474 4.98419 4.89474H5.81446C5.91697 4.89474 5.98872 4.91486 6.02972 4.95511C6.07072 4.99536 6.09806 5.05975 6.11172 5.1483L7.13676 10.461L8.3668 5.77616C8.39413 5.67957 8.42488 5.61517 8.45905 5.58297C8.50005 5.54272 8.56497 5.5226 8.65381 5.5226H9.12533C9.21416 5.5226 9.27566 5.54272 9.30983 5.58297C9.35083 5.61517 9.385 5.67957 9.41233 5.77616L10.6526 10.461L11.6674 5.1483C11.6811 5.05975 11.7084 4.99536 11.7494 4.95511C11.7972 4.91486 11.869 4.89474 11.9647 4.89474H12.8052C12.935 4.89474 13 4.95511 13 5.07585C13 5.12415 12.9965 5.16037 12.9897 5.18452L11.3599 12.8034C11.3326 12.9161 11.2916 12.9966 11.2369 13.0449C11.1891 13.0851 11.1173 13.1053 11.0216 13.1053H10.4681C10.3725 13.1053 10.2973 13.0851 10.2426 13.0449C10.1948 12.9966 10.1572 12.9161 10.1299 12.8034L8.88957 7.97368L7.65953 12.8034C7.63219 12.9161 7.59119 12.9966 7.53652 13.0449C7.48869 13.0851 7.41693 13.1053 7.32126 13.1053H6.7575Z" fill="#737277"/>
</svg>
